<svg width="220" height="76" viewBox="0 0 220 76" fill="none" xmlns="http://www.w3.org/2000/svg">
<path d="M219.914 1.61719H202.761V21.0214H219.914V1.61719Z" fill="white"/>
<path d="M216.575 64.8211C218.778 61.262 219.891 57.1058 219.914 52.3523V43.6596H219.909H202.761V52.3523C202.737 54.4782 202.42 56.2578 201.811 57.691C201.225 59.1241 200.358 60.211 199.21 60.9515C198.062 61.6681 196.655 62.0264 194.992 62.0264C193.398 62.0264 192.028 61.692 190.879 61.0231C189.73 60.3543 188.828 59.363 188.172 58.0493C187.539 56.7116 187.187 55.0993 187.117 53.2122H169.787C169.764 58.4672 170.831 62.7788 172.987 66.1468C175.166 69.5148 178.084 71.999 181.739 73.5995C185.419 75.1999 189.507 76 194.007 76C199.093 76 203.569 75.0207 207.436 73.062C211.326 71.1033 214.372 68.3563 216.575 64.8211Z" fill="white"/>
<path d="M41.7029 23.2121C41.4646 20.5606 40.4035 18.4998 38.5198 17.0294C36.66 15.535 34.0014 14.7878 30.5441 14.7878C28.255 14.7878 26.3475 15.089 24.8215 15.6916C23.2955 16.2942 22.151 17.1258 21.388 18.1864C20.625 19.2229 20.2315 20.4161 20.2077 21.7659C20.16 22.8747 20.3746 23.8508 20.8515 24.6945C21.3522 25.5381 22.0675 26.2854 22.9975 26.9362C23.9512 27.5628 25.0957 28.1172 26.4309 28.5993C27.7662 29.0814 29.2684 29.5033 30.9375 29.8648L37.2323 31.311C40.8565 32.1065 44.0516 33.167 46.8175 34.4927C49.6072 35.8185 51.9439 37.3972 53.8275 39.2292C55.7351 41.0611 57.1776 43.1702 58.1552 45.5565C59.1329 47.9427 59.6335 50.6183 59.6575 53.5831C59.6335 58.2593 58.4652 62.2726 56.1524 65.6231C53.8395 68.9735 50.5133 71.5405 46.1737 73.3242C41.858 75.108 36.648 75.9998 30.5441 75.9998C24.4162 75.9998 19.0751 75.0718 14.5209 73.2158C9.96672 71.3598 6.42593 68.5396 3.89848 64.7553C1.37103 60.971 0.0715298 56.1863 0 50.4014H16.953C17.0961 52.7877 17.728 54.7762 18.8486 56.3671C19.9692 57.958 21.5072 59.1632 23.4624 59.9827C25.4414 60.8022 27.7304 61.212 30.3294 61.212C32.7138 61.212 34.7406 60.8866 36.4097 60.2358C38.1025 59.585 39.402 58.6811 40.3081 57.5241C41.2142 56.3671 41.6791 55.0414 41.7029 53.5469C41.6791 52.1489 41.2499 50.9557 40.4155 49.9675C39.5809 48.9552 38.2933 48.0874 36.5527 47.3643C34.836 46.617 32.6423 45.9301 29.9718 45.3034L22.3179 43.4955C15.9754 42.0253 10.9801 39.651 7.33203 36.3728C3.68388 33.0706 1.87174 28.6113 1.89559 22.9952C1.87174 18.4154 3.08778 14.4021 5.54371 10.9552C7.9996 7.50834 11.3974 4.82074 15.7369 2.8924C20.0766 0.964168 25.0242 0 30.5798 0C36.2546 0 41.1784 0.976152 45.3511 2.92856C49.5476 4.8569 52.8023 7.56858 55.1151 11.0637C57.4281 14.5587 58.6083 18.6082 58.656 23.2121H41.7029ZM99.6079 19.5242V32.5403H64.9508V19.5242H99.6079ZM72.2113 6.21879H89.7007V57.5964C89.7007 58.6811 89.8676 59.5609 90.2015 60.2358C90.5591 60.8866 91.0717 61.3566 91.7394 61.6459C92.4071 61.911 93.2058 62.0436 94.1357 62.0436C94.8034 62.0436 95.5067 61.9834 96.2459 61.8628C97.0089 61.7182 97.5812 61.5976 97.9626 61.5012L100.609 74.2643C99.7748 74.5054 98.5945 74.8067 97.0686 75.1682C95.5663 75.5298 93.7661 75.7588 91.6678 75.8552C87.5667 76.048 84.0498 75.5659 81.1169 74.409C78.208 73.2278 75.9786 71.396 74.4287 68.9132C72.9028 66.4305 72.1635 63.3091 72.2113 59.5488V6.21879ZM124.018 75.9998C120.513 75.9998 117.401 75.4092 114.683 74.2281C111.989 73.0229 109.855 71.2151 108.281 68.8048C106.732 66.3702 105.956 63.3211 105.956 59.6573C105.956 56.572 106.492 53.9687 107.566 51.8476C108.639 49.7264 110.117 48.003 112 46.6773C113.885 45.3516 116.054 44.3513 118.51 43.6764C120.966 42.9773 123.589 42.5073 126.379 42.2662C129.502 41.977 132.018 41.6757 133.925 41.3624C135.832 41.0249 137.216 40.5549 138.074 39.9523C138.957 39.3256 139.397 38.4458 139.397 37.3129V37.1321C139.397 35.2761 138.766 33.842 137.502 32.8296C136.238 31.8172 134.534 31.311 132.387 31.311C130.075 31.311 128.215 31.8172 126.808 32.8296C125.401 33.842 124.507 35.2399 124.125 37.0237L107.995 36.4452C108.472 33.0706 109.7 30.0576 111.679 27.4062C113.682 24.7307 116.423 22.6336 119.904 21.1151C123.41 19.5724 127.619 18.801 132.531 18.801C136.036 18.801 139.266 19.2229 142.223 20.0665C145.179 20.8861 147.755 22.0912 149.948 23.6821C152.142 25.2489 153.834 27.1772 155.027 29.4671C156.243 31.757 156.851 34.3723 156.851 37.3129V75.0597H140.399V67.3223H139.97C138.992 69.2025 137.741 70.7934 136.214 72.0949C134.712 73.3965 132.936 74.3728 130.885 75.0236C128.859 75.6743 126.57 75.9998 124.018 75.9998ZM129.419 64.4299C131.302 64.4299 132.996 64.0442 134.498 63.2729C136.023 62.5016 137.239 61.441 138.146 60.0912C139.052 58.7172 139.504 57.1264 139.504 55.3186V50.0398C139.004 50.305 138.396 50.546 137.681 50.7629C136.99 50.9799 136.226 51.1847 135.392 51.3776C134.557 51.5704 133.698 51.7392 132.816 51.8837C131.934 52.0284 131.088 52.161 130.277 52.2814C128.632 52.5466 127.225 52.9564 126.057 53.5108C124.912 54.0651 124.03 54.7883 123.41 55.6802C122.814 56.5479 122.516 57.5843 122.516 58.7896C122.516 60.6215 123.16 62.0194 124.447 62.9836C125.759 63.9478 127.416 64.4299 129.419 64.4299Z" fill="white"/>
<path d="M178.68 42.042C183.592 42.042 187.574 38.0602 187.574 33.1484C187.574 28.2366 183.592 24.2548 178.68 24.2548C173.769 24.2548 169.787 28.2366 169.787 33.1484C169.787 38.0602 173.769 42.042 178.68 42.042Z" fill="#42BFF4"/>
<path d="M211.824 40.4249C216.289 40.4249 219.909 36.8051 219.909 32.3398C219.909 27.8746 216.289 24.2548 211.824 24.2548C207.358 24.2548 203.739 27.8746 203.739 32.3398C203.739 36.8051 207.358 40.4249 211.824 40.4249Z" fill="white"/>
</svg>
