<svg width="51" height="75" viewBox="0 0 51 75" fill="none" xmlns="http://www.w3.org/2000/svg">
<path d="M50.1275 0H32.9737V19.4042H50.1275V0Z" fill="white"/>
<path d="M46.7877 63.2039C48.9912 59.6448 50.1038 55.4886 50.1275 50.7351V42.0425H50.1219H32.9737V50.7351C32.95 52.8611 32.6335 54.6406 32.0241 56.0738C31.4384 57.5069 30.5712 58.5938 29.4235 59.3343C28.2749 60.0509 26.8684 60.4092 25.2052 60.4092C23.6111 60.4092 22.2407 60.0748 21.092 59.4059C19.9434 58.7372 19.0411 57.7458 18.3853 56.4321C17.7522 55.0945 17.4006 53.4821 17.3305 51.595H0.00035445C-0.0223303 56.8501 1.04385 61.1616 3.19994 64.5296C5.37871 67.8976 8.2968 70.3818 11.9521 71.9823C15.6322 73.5827 19.7206 74.3828 24.2205 74.3828C29.306 74.3828 33.7821 73.4035 37.6488 71.4448C41.5393 69.4862 44.5852 66.7391 46.7877 63.2039Z" fill="white"/>
<path d="M8.89359 40.4248C13.8054 40.4248 17.7872 36.443 17.7872 31.5312C17.7872 26.6194 13.8054 22.6376 8.89359 22.6376C3.9818 22.6376 0 26.6194 0 31.5312C0 36.443 3.9818 40.4248 8.89359 40.4248Z" fill="#D48042"/>
<path d="M42.0368 38.8077C46.5021 38.8077 50.1219 35.1879 50.1219 30.7227C50.1219 26.2574 46.5021 22.6376 42.0368 22.6376C37.5716 22.6376 33.9518 26.2574 33.9518 30.7227C33.9518 35.1879 37.5716 38.8077 42.0368 38.8077Z" fill="white"/>
</svg>
